<svg xmlns="http://www.w3.org/2000/svg" width="846" height="1354" viewBox="0 0 846 1354" font-family="ui-sans-serif,system-ui,-apple-system,'Segoe UI',Roboto,'Helvetica Neue',Arial,sans-serif" role="img" aria-label="Electrical block diagram: Ulysses LARS Charger — Vehicle converter — 400 V link to the 48 V Mako pack, 11 blocks, 4 rails, 7 buses">
<style>
.s{fill:#fcfcfb} .bx{fill:#ffffff;stroke:#c3c2b7} .ink{fill:#0b0b0b} .ink2{fill:#52514e} .ax{stroke:#c3c2b7} .gt{fill:#c3c2b7}
@media (prefers-color-scheme:dark){.s{fill:#1a1a19} .bx{fill:#242422;stroke:#383835} .ink{fill:#ffffff} .ink2{fill:#c3c2b7} .ax{stroke:#383835} .gt{fill:#383835}}
.mut{fill:#898781}
.t{font-size:12px} .tb{font-size:12.5px;font-weight:600} .ts{font-size:10px} .tr{font-size:11.5px;font-weight:600} .h{font-size:15px;font-weight:600} .hh{font-size:11px;font-weight:600;letter-spacing:0.06em}
</style>
<rect width="846" height="1354" class="s" rx="6"/>
<text x="24" y="27" class="h ink">Ulysses LARS Charger — Vehicle converter — 400 V link to the 48 V Mako pack  ·  rev C</text>
<text x="24" y="46" class="t ink2">11 blocks · 4 rails · 7 buses</text>
<text x="24" y="61" class="ts mut">generated from block-diagram.yaml — edit the spec, not this file</text>
<text x="24" y="84" class="hh mut">POWER TREE</text>
<rect x="24.0" y="96.0" width="6" height="32" rx="3" fill="#d03b3b"/>
<text x="38.0" y="108.0" class="tr" fill="#d03b3b">HVDC  400.0 V</text>
<rect x="284" y="98.0" width="150" height="9" rx="4.5" class="gt" opacity="0.5"/>
<rect x="284" y="98.0" width="120.0" height="9" rx="4.5" fill="#d03b3b"/>
<text x="446" y="107.0" class="ts ink2">8.00 A max of 10.00 A  (80%)</text>
<text x="38.0" y="124.0" class="ts mut">U20 8.00 A</text>
<rect x="24.0" y="142.0" width="6" height="32" rx="3" fill="#e08a1e"/>
<text x="38.0" y="154.0" class="tr" fill="#e08a1e">V48_MAKO  48.0 V  ← U22</text>
<rect x="284" y="144.0" width="150" height="9" rx="4.5" class="gt" opacity="0.5"/>
<rect x="284" y="144.0" width="141.8" height="9" rx="4.5" fill="#e08a1e"/>
<text x="446" y="153.0" class="ts ink2">75.62 A max of 80.00 A  (95%)  ! tight</text>
<text x="38.0" y="170.0" class="ts mut">J3 75.00 A  U26 400 mA</text>
<path d="M33.0,156.0 V200.0 H43.0" fill="none" class="ax" stroke-width="1.2" opacity="0.6"/>
<rect x="46.0" y="188.0" width="6" height="32" rx="3" fill="#0ca30c"/>
<text x="60.0" y="200.0" class="tr" fill="#0ca30c">VEH12  12.0 V  ← U26</text>
<rect x="284" y="190.0" width="150" height="9" rx="4.5" class="gt" opacity="0.5"/>
<rect x="284" y="190.0" width="87.4" height="9" rx="4.5" fill="#0ca30c"/>
<text x="446" y="199.0" class="ts ink2">874 mA max of 1.50 A  (58%)</text>
<text x="60.0" y="216.0" class="ts mut">U25 500 mA  U22 200 mA  U20 50 mA  U27 4 mA</text>
<path d="M55.0,202.0 V246.0 H65.0" fill="none" class="ax" stroke-width="1.2" opacity="0.6"/>
<rect x="68.0" y="234.0" width="6" height="32" rx="3" fill="#2a78d6"/>
<text x="82.0" y="246.0" class="tr" fill="#2a78d6">VEH3V3  3.3 V  ← U27</text>
<rect x="284" y="236.0" width="150" height="9" rx="4.5" class="gt" opacity="0.5"/>
<rect x="284" y="236.0" width="81.6" height="9" rx="4.5" fill="#2a78d6"/>
<text x="446" y="245.0" class="ts ink2">435 mA max of 800 mA  (54%)</text>
<text x="82.0" y="262.0" class="ts mut">U23 400 mA  U24 35 mA</text>
<text x="24" y="302" class="hh mut">FUNCTIONAL BLOCKS AND DATA BUSES</text>
<rect x="24.0" y="316.0" width="186" height="70" rx="5" class="bx" stroke-width="1.2"/>
<text x="34.0" y="336.0" class="tb ink">U20 · HVLV HV bridge 4x</text>
<text x="34.0" y="352.0" class="t ink2">IPB60R120C7</text>
<text x="34.0" y="370.0" class="ts mut">POWER</text>
<rect x="161.0" y="360.0" width="39.0" height="15" rx="7.5" fill="#0ca30c"/>
<text x="180.5" y="371.0" class="ts" fill="#ffffff" text-anchor="middle">VEH12</text>
<rect x="124.0" y="360.0" width="33.0" height="15" rx="7.5" fill="#d03b3b"/>
<text x="140.5" y="371.0" class="ts" fill="#ffffff" text-anchor="middle">HVDC</text>
<rect x="24.0" y="420.0" width="186" height="70" rx="5" class="bx" stroke-width="1.2"/>
<text x="34.0" y="440.0" class="tb ink">U22 · HVLV LV bridge 16x</text>
<text x="34.0" y="456.0" class="t ink2">BSC190N15NS3</text>
<text x="34.0" y="474.0" class="ts mut">POWER</text>
<rect x="161.0" y="464.0" width="39.0" height="15" rx="7.5" fill="#0ca30c"/>
<text x="180.5" y="475.0" class="ts" fill="#ffffff" text-anchor="middle">VEH12</text>
<rect x="24.0" y="524.0" width="186" height="70" rx="5" class="bx" stroke-width="1.2"/>
<text x="34.0" y="544.0" class="tb ink">U25 · HVLV isolated gate bias</text>
<text x="34.0" y="560.0" class="t ink2">UCC14240-Q1</text>
<text x="34.0" y="578.0" class="ts mut">REGULATOR</text>
<rect x="161.0" y="568.0" width="39.0" height="15" rx="7.5" fill="#0ca30c"/>
<text x="180.5" y="579.0" class="ts" fill="#ffffff" text-anchor="middle">VEH12</text>
<rect x="24.0" y="628.0" width="186" height="70" rx="5" class="bx" stroke-width="1.2"/>
<text x="34.0" y="648.0" class="tb ink">J4 · Vehicle debug header</text>
<text x="34.0" y="664.0" class="t ink2">FTSH-105-01</text>
<text x="34.0" y="682.0" class="ts mut">CONNECTOR</text>
<rect x="24.0" y="732.0" width="186" height="70" rx="5" class="bx" stroke-width="1.2"/>
<text x="34.0" y="752.0" class="tb ink">X_rx · to rx sheet</text>
<text x="34.0" y="768.0" class="t ink2">see block-diagram-rx.svg</text>
<text x="34.0" y="786.0" class="ts mut">CONNECTOR</text>
<rect x="24.0" y="836.0" width="186" height="70" rx="5" class="bx" stroke-width="1.2"/>
<text x="34.0" y="856.0" class="tb ink">U26 · Vehicle buck 48V to 12V</text>
<text x="34.0" y="872.0" class="t ink2">TPSM5601R5</text>
<text x="34.0" y="890.0" class="ts mut">REGULATOR</text>
<rect x="143.0" y="880.0" width="57.0" height="15" rx="7.5" fill="#e08a1e"/>
<text x="171.5" y="891.0" class="ts" fill="#ffffff" text-anchor="middle">V48_MAKO</text>
<rect x="24.0" y="940.0" width="186" height="70" rx="5" class="bx" stroke-width="1.2"/>
<text x="34.0" y="960.0" class="tb ink">U27 · Vehicle buck 12V to 3.3V</text>
<text x="34.0" y="976.0" class="t ink2">TPSM560R6</text>
<text x="34.0" y="994.0" class="ts mut">REGULATOR</text>
<rect x="161.0" y="984.0" width="39.0" height="15" rx="7.5" fill="#0ca30c"/>
<text x="180.5" y="995.0" class="ts" fill="#ffffff" text-anchor="middle">VEH12</text>
<rect x="24.0" y="1044.0" width="186" height="70" rx="5" class="bx" stroke-width="1.2"/>
<text x="34.0" y="1064.0" class="tb ink">J3 · Mako pack connector</text>
<text x="34.0" y="1080.0" class="t ink2">TBD-48V-75A</text>
<text x="34.0" y="1098.0" class="ts mut">CONNECTOR</text>
<rect x="143.0" y="1088.0" width="57.0" height="15" rx="7.5" fill="#e08a1e"/>
<text x="171.5" y="1099.0" class="ts" fill="#ffffff" text-anchor="middle">V48_MAKO</text>
<rect x="426.0" y="576.0" width="186" height="70" rx="5" class="bx" stroke-width="1.2"/>
<text x="436.0" y="596.0" class="tb ink">U24 · PWM and analog isolation</text>
<text x="436.0" y="612.0" class="t ink2">ISO7740</text>
<text x="436.0" y="630.0" class="ts mut">INTERFACE</text>
<rect x="557.0" y="620.0" width="45.0" height="15" rx="7.5" fill="#2a78d6"/>
<text x="579.5" y="631.0" class="ts" fill="#ffffff" text-anchor="middle">VEH3V3</text>
<rect x="426.0" y="680.0" width="186" height="70" rx="5" class="bx" stroke-width="1.2"/>
<text x="436.0" y="700.0" class="tb ink">U21 · HVLV planar transformer</text>
<text x="436.0" y="716.0" class="t ink2">TBD-planar-400V-48V</text>
<text x="436.0" y="734.0" class="ts mut">OTHER</text>
<rect x="426.0" y="784.0" width="186" height="70" rx="5" class="bx" stroke-width="1.2"/>
<text x="436.0" y="804.0" class="tb ink">U23 · HVLV controller</text>
<text x="436.0" y="820.0" class="t ink2">STM32H723ZGT6</text>
<text x="436.0" y="838.0" class="ts mut">MCU</text>
<rect x="557.0" y="828.0" width="45.0" height="15" rx="7.5" fill="#2a78d6"/>
<text x="579.5" y="839.0" class="ts" fill="#ffffff" text-anchor="middle">VEH3V3</text>
<path d="M210.0,663.0 H250.0 V812.0 H422.0" fill="none" stroke="#64748b" stroke-width="1.8" stroke-linejoin="round"/>
<circle cx="210.0" cy="663.0" r="2.6" fill="#64748b"/>
<path d="M-5,-4 L-5,4 L2,0 z" transform="translate(424.0,812.0)" fill="#64748b"/>
<text x="255" y="740" class="ts" fill="#64748b" text-anchor="start">SWD_VEH</text>
<path d="M210.0,778.6666666666666 H269.0 V826.0 H422.0" fill="none" stroke="#e08a1e" stroke-width="1.8" stroke-linejoin="round"/>
<circle cx="210.0" cy="778.6666666666666" r="2.6" fill="#e08a1e"/>
<circle cx="423.0" cy="826.0" r="3" fill="#e08a1e"/>
<text x="274" y="805" class="ts" fill="#e08a1e" text-anchor="start">VEH_LINK</text>
<path d="M210.0,455.0 H307.0 V798.0 H422.0" fill="none" stroke="#52514e" stroke-width="1.8" stroke-linejoin="round"/>
<circle cx="210.0" cy="455.0" r="2.6" fill="#52514e"/>
<circle cx="423.0" cy="798.0" r="3" fill="#52514e"/>
<text x="312" y="630" class="ts" fill="#52514e" text-anchor="start">HVLV_LV_PWM</text>
<path d="M210.0,755.3333333333334 H326.0 V351.0 H20.0" fill="none" stroke="#52514e" stroke-width="1.8" stroke-linejoin="round"/>
<circle cx="210.0" cy="755.3333333333334" r="2.6" fill="#52514e"/>
<path d="M-5,-4 L-5,4 L2,0 z" transform="translate(22.0,351.0)" fill="#52514e"/>
<text x="331" y="556" class="ts" fill="#52514e" text-anchor="start">PWR_HVDC_LINK</text>
<path d="M210.0,472.5 H364.0 V1079.0 H20.0" fill="none" stroke="#52514e" stroke-width="1.8" stroke-linejoin="round"/>
<circle cx="210.0" cy="472.5" r="2.6" fill="#52514e"/>
<path d="M-5,-4 L-5,4 L2,0 z" transform="translate(22.0,1079.0)" fill="#52514e"/>
<text x="369" y="779" class="ts" fill="#52514e" text-anchor="start">PWR_PACK</text>
<line x1="288.0" y1="339.3333333333333" x2="288.0" y2="840.0" stroke="#52514e" stroke-width="2.4" stroke-linecap="round"/>
<text x="293.0" y="330.3333333333333" class="ts" fill="#52514e">HVLV_ISO</text>
<line x1="426.0" y1="840.0" x2="288.0" y2="840.0" stroke="#52514e" stroke-width="1.6"/>
<circle cx="426.0" cy="840.0" r="2.6" fill="#52514e"/>
<rect x="284.0" y="836.0" width="8" height="8" rx="1.5" fill="#52514e"/>
<line x1="426.0" y1="611.0" x2="288.0" y2="611.0" stroke="#52514e" stroke-width="1.6"/>
<circle cx="426.0" cy="611.0" r="2.6" fill="#52514e"/>
<circle cx="288.0" cy="611.0" r="3.2" fill="#52514e"/>
<line x1="210.0" y1="339.3333333333333" x2="288.0" y2="339.3333333333333" stroke="#52514e" stroke-width="1.6"/>
<circle cx="210.0" cy="339.3333333333333" r="2.6" fill="#52514e"/>
<circle cx="288.0" cy="339.3333333333333" r="3.2" fill="#52514e"/>
<line x1="345.0" y1="362.6666666666667" x2="345.0" y2="715.0" stroke="#52514e" stroke-width="2.4" stroke-linecap="round"/>
<text x="350.0" y="353.6666666666667" class="ts" fill="#52514e">PWR_DAB_XFMR</text>
<line x1="426.0" y1="715.0" x2="345.0" y2="715.0" stroke="#52514e" stroke-width="1.6"/>
<circle cx="426.0" cy="715.0" r="2.6" fill="#52514e"/>
<rect x="341.0" y="711.0" width="8" height="8" rx="1.5" fill="#52514e"/>
<line x1="210.0" y1="362.6666666666667" x2="345.0" y2="362.6666666666667" stroke="#52514e" stroke-width="1.6"/>
<circle cx="210.0" cy="362.6666666666667" r="2.6" fill="#52514e"/>
<circle cx="345.0" cy="362.6666666666667" r="3.2" fill="#52514e"/>
<line x1="210.0" y1="437.5" x2="345.0" y2="437.5" stroke="#52514e" stroke-width="1.6"/>
<circle cx="210.0" cy="437.5" r="2.6" fill="#52514e"/>
<circle cx="345.0" cy="437.5" r="3.2" fill="#52514e"/>
<text x="24" y="1140.0" class="tb ink2">DATA BUSES</text>
<line x1="24" y1="1160.0" x2="46" y2="1160.0" stroke="#64748b" stroke-width="2.4" stroke-linecap="round"/>
<text x="54" y="1164.0" class="ts ink2">SWD_VEH · SWD</text>
<line x1="24" y1="1182.0" x2="46" y2="1182.0" stroke="#e08a1e" stroke-width="2.4" stroke-linecap="round"/>
<text x="54" y="1186.0" class="ts ink2">VEH_LINK · UART — RX controller to HVLV controller, vehicle-side coordination</text>
<line x1="24" y1="1204.0" x2="46" y2="1204.0" stroke="#52514e" stroke-width="2.4" stroke-linecap="round"/>
<text x="54" y="1208.0" class="ts ink2">HVLV_ISO · OTHER — phase-shift PWM across the isolation barrier</text>
<line x1="24" y1="1226.0" x2="46" y2="1226.0" stroke="#52514e" stroke-width="2.4" stroke-linecap="round"/>
<text x="54" y="1230.0" class="ts ink2">HVLV_LV_PWM · OTHER</text>
<line x1="24" y1="1248.0" x2="46" y2="1248.0" stroke="#52514e" stroke-width="2.4" stroke-linecap="round"/>
<text x="54" y="1252.0" class="ts ink2">PWR_HVDC_LINK · OTHER</text>
<line x1="24" y1="1270.0" x2="46" y2="1270.0" stroke="#52514e" stroke-width="2.4" stroke-linecap="round"/>
<text x="54" y="1274.0" class="ts ink2">PWR_DAB_XFMR · OTHER — planar transformer, 8.33:1 nominal</text>
<line x1="24" y1="1292.0" x2="46" y2="1292.0" stroke="#52514e" stroke-width="2.4" stroke-linecap="round"/>
<text x="54" y="1296.0" class="ts ink2">PWR_PACK · OTHER</text>
<text x="24" y="1338" class="ts mut">■ bus controller · ● bus member · pill on a block = the rail it runs from · every colour is also labelled</text>
</svg>